<svg width="10" height="16" viewBox="0 0 10 16" fill="none" xmlns="http://www.w3.org/2000/svg">
<path d="M5.71912 15.5002L6.21911 15.5002V15.0002V9.1141H7.86267H8.30233L8.35856 8.67805L8.67948 6.18929L8.7522 5.62534H8.18359H6.21911V4.53635C6.21911 4.19748 6.27241 4.05174 6.33082 3.98236C6.373 3.93227 6.50252 3.82472 6.95257 3.82472H6.9528L8.27069 3.82411L8.77046 3.82388V3.32411V1.0982V0.660095L8.33615 0.602538C8.08337 0.569039 7.27893 0.500244 6.35007 0.500244C5.29855 0.500244 4.36133 0.822848 3.68556 1.49076C3.00825 2.16021 2.6491 3.12163 2.6491 4.28999V5.62541H1H0.5V6.12541V8.61417V9.11417H1H2.64903V15.0002V15.5003L3.14905 15.5002L5.71912 15.5002Z" stroke="white"/>
</svg>
