<svg width="14" height="17" viewBox="0 0 14 17" fill="none" xmlns="http://www.w3.org/2000/svg">
<path d="M6.17866 11.5151C6.27245 11.5785 6.37058 11.6365 6.4713 11.6885C6.89513 11.9076 7.40574 12.0446 7.93506 12.0446C10.9519 12.0446 12.9957 9.28288 12.9957 6.07635C12.9957 2.86388 10.367 0.500244 7.07671 0.500244C5.06306 0.500244 3.4785 1.17877 2.39643 2.26733C1.31816 3.35206 0.770508 4.8125 0.770508 6.32054C0.770508 7.04644 0.961484 7.84507 1.30211 8.53586C1.63969 9.22046 2.15376 9.85673 2.84191 10.1772M6.17866 11.5151L2.84091 10.1768C2.84124 10.1769 2.84157 10.1771 2.84191 10.1772M6.17866 11.5151L6.16911 11.5514C6.04565 12.0204 5.90836 12.5412 5.8535 12.747C5.62711 13.6231 5.01146 14.6914 4.65485 15.2644L4.45157 15.5911L4.08374 15.4783C3.89245 15.4196 3.70972 15.3494 3.54358 15.2856C3.53185 15.2811 3.5202 15.2767 3.50864 15.2722L3.22538 15.1636L3.19094 14.8622C3.11242 14.1752 3.0161 12.9637 3.22029 12.0807L3.22057 12.0795C3.29113 11.7777 3.49877 10.8976 3.7093 10.0062C3.6481 10.0912 3.55997 10.1713 3.43269 10.2214C3.1827 10.3198 2.95194 10.2289 2.84191 10.1772M6.17866 11.5151L2.84191 10.1772M4.12607 7.60357C4.15665 7.70961 4.18759 7.79881 4.21431 7.8689L4.21413 7.86966L4.1133 8.29622L4.08857 8.40087C4.06407 8.26767 4.004 8.13976 3.908 8.03288C3.63075 7.68797 3.37622 7.00218 3.37622 6.35507C3.37622 4.67055 4.64142 3.03936 6.84486 3.03936C7.80971 3.03936 8.59804 3.36584 9.14269 3.89598C9.68634 4.42514 10.0175 5.18638 10.0175 6.11582C10.0175 7.22549 9.73664 8.12579 9.31166 8.73366C8.89041 9.3362 8.34056 9.64119 7.75254 9.64119C7.17575 9.64119 6.81221 9.19527 6.93669 8.66826C7.02226 8.30909 7.13398 7.94695 7.24807 7.57712C7.29441 7.42688 7.34116 7.27537 7.38669 7.12227C7.53569 6.62134 7.67784 6.08497 7.67784 5.62498C7.67784 5.20393 7.56538 4.77224 7.28961 4.4356C7.00283 4.08552 6.57806 3.88678 6.06543 3.88678C4.7848 3.88678 3.97452 5.1629 3.97452 6.52033C3.97452 6.96594 4.04986 7.33934 4.12607 7.60357Z" stroke="white"/>
</svg>
