<svg width="18" height="15" viewBox="0 0 18 15" fill="none" xmlns="http://www.w3.org/2000/svg">
<path d="M15.1632 3.1468C15.2406 2.99393 15.3071 2.83361 15.3613 2.66637L15.7643 1.42378L14.6346 2.07972C14.1846 2.34105 13.7135 2.53793 13.2092 2.66225C12.6178 2.13345 11.8238 1.81055 10.9642 1.81055C9.09384 1.81055 7.58726 3.31713 7.58726 5.18751C7.58726 5.22164 7.58765 5.25672 7.58852 5.29255C5.59492 5.03045 3.83453 4.01306 2.63014 2.52713L2.16776 1.95665L1.80643 2.59593C1.52918 3.08645 1.3569 3.66533 1.3569 4.2896C1.3569 4.76675 1.45508 5.21954 1.63155 5.62946L1.33857 5.46205V6.32364V6.32374V6.32385V6.32396V6.32406V6.32417V6.32427V6.32438V6.32448V6.32459V6.32469V6.32479V6.3249V6.325V6.3251V6.3252V6.3253V6.3254V6.3255V6.3256V6.3257V6.3258V6.3259V6.326V6.3261V6.32619V6.32629V6.32639V6.32648V6.32658V6.32668V6.32677V6.32687V6.32696V6.32706V6.32715V6.32724V6.32734V6.32743V6.32752V6.32761V6.3277V6.3278V6.32789V6.32798V6.32807V6.32816V6.32825V6.32834V6.32843V6.32852V6.3286V6.32869V6.32878V6.32887V6.32895V6.32904V6.32913V6.32921V6.3293V6.32938V6.32947V6.32955V6.32964V6.32972V6.3298V6.32989V6.32997V6.33005V6.33014V6.33022V6.3303V6.33038V6.33046V6.33054V6.33063V6.33071V6.33079V6.33086V6.33094V6.33102V6.3311V6.33118V6.33126V6.33134V6.33142V6.33149V6.33157V6.33165V6.33172V6.3318V6.33188V6.33195V6.33203V6.3321V6.33218V6.33225V6.33233V6.3324V6.33248V6.33255V6.33262V6.3327V6.33277V6.33284V6.33291V6.33299V6.33306V6.33313V6.3332V6.33327V6.33334V6.33342V6.33349V6.33356V6.33363V6.3337V6.33377V6.33383V6.3339V6.33397V6.33404V6.33411V6.33418V6.33425V6.33431V6.33438V6.33445V6.33452V6.33458V6.33465V6.33472V6.33478V6.33485V6.33492V6.33498V6.33505V6.33511V6.33518V6.33524V6.33531V6.33537V6.33544V6.3355V6.33556V6.33563V6.33569V6.33576V6.33582V6.33588V6.33595V6.33601V6.33607V6.33613V6.3362V6.33626V6.33632V6.33638V6.33644V6.3365V6.33657V6.33663V6.33669V6.33675V6.33681V6.33687V6.33693V6.33699V6.33705V6.33711V6.33717V6.33723V6.33729V6.33735V6.33741V6.33747V6.33753V6.33759V6.33764V6.3377V6.33776V6.33782V6.33788V6.33794V6.33799V6.33805V6.33811V6.33817V6.33822V6.33828V6.33834V6.3384V6.33845V6.33851V6.33857V6.33862V6.33868V6.33874V6.33879V6.33885V6.33891V6.33896V6.33902V6.33908V6.33913V6.33919V6.33924V6.3393V6.33935V6.33941V6.33947V6.33952V6.33958V6.33963V6.33969V6.33974V6.3398V6.33985V6.33991V6.33996V6.34002V6.34007V6.34013V6.34018V6.34023V6.34029V6.34034V6.3404V6.34045V6.34051V6.34056V6.34061V6.34067V6.34072V6.34078V6.34083V6.34089V6.34094V6.34099V6.34105V6.3411V6.34116V6.34121V6.34126V6.34132V6.34137V6.34142V6.34148V6.34153V6.34159V6.34164V6.34169V6.34175V6.3418V6.34185V6.34191V6.34196V6.34201V6.34207V6.34212V6.34218V6.34223V6.34228V6.34234V6.34239V6.34244V6.3425V6.34255V6.34261V6.34266V6.34271V6.34277V6.34282V6.34288V6.34293V6.34298V6.34304V6.34309V6.34314V6.3432V6.34325V6.34331V6.34336V6.34342V6.34347V6.34352V6.34358V6.34363V6.34369V6.34374V6.3438V6.34385V6.34391V6.34396V6.34402V6.34407V6.34413V6.34418V6.34424V6.34429V6.34435V6.3444V6.34446V6.34451V6.34457V6.34462V6.34468V6.34474V6.34479V6.34485V6.3449V6.34496V6.34502V6.34507V6.34513V6.34518V6.34524V6.3453V6.34535V6.34541V6.34547V6.34553V6.34558V6.34564V6.3457V6.34576V6.34581V6.34587V6.34593V6.34599V6.34604V6.3461V6.34616V6.34622V6.34628V6.34634V6.3464V6.34645V6.34651V6.34657V6.34663V6.34669V6.34675V6.34681V6.34687V6.34693V6.34699V6.34705V6.34711V6.34717V6.34723V6.3473V6.34736V6.34742V6.34748V6.34754V6.3476V6.34766V6.34773V6.34779V6.34785V6.34791V6.34798V6.34804V6.3481V6.34817V6.34823V6.34829V6.34836V6.34842V6.34849V6.34855V6.34861V6.34868V6.34874V6.34881V6.34888V6.34894V6.34901V6.34907V6.34914V6.34921V6.34927V6.34934V6.34941V6.34947V6.34954V6.34961V6.34968V6.34974V6.34981V6.34988V6.34995V6.35002V6.35009V6.35016V6.35023V6.3503V6.35037V6.35044V6.35051V6.35058V6.35065V6.35072V6.35079V6.35086V6.35094V6.35101V6.35108V6.35115V6.35123V6.3513V6.35137V6.35145V6.35152V6.35159V6.35167V6.35174V6.35182V6.35189V6.35197V6.35205V6.35212V6.3522V6.35227V6.35235V6.35243V6.35251V6.35258V6.35266V6.35274V6.35282V6.3529V6.35298V6.35306V6.35314V6.35322V6.3533V6.35338V6.35346V6.35354V6.35362V6.3537V6.35379V6.35387V6.35395V6.35403V6.35412V6.3542V6.35429V6.35437V6.35445V6.35454V6.35462V6.35471V6.3548V6.35488V6.35497V6.35506V6.35514V6.35523V6.35532V6.35541V6.3555V6.35558V6.35567V6.35576V6.35585V6.35594V6.35603V6.35613V6.35622V6.35631V6.3564V6.35649V6.35659V6.35668V6.35677V6.35687V6.35696V6.35706V6.35715V6.35725V6.35734V6.35744V6.35753V6.35763V6.35773V6.35783V6.35792V6.35802V6.35812V6.35822V6.35832V6.35842V6.35852V6.35862V6.35872V6.35882V6.35892V6.35903V6.35913V6.35923V6.35934V6.35944V6.35954V6.35965V6.35975V6.35986V6.35997V6.36007V6.36018V6.36029C1.33857 7.20969 1.65202 7.98363 2.17021 8.57378L2.12287 8.56431L2.36837 9.36543C2.6514 10.289 3.33372 11.0466 4.21751 11.4349C3.52642 11.7616 2.75566 11.9441 1.94852 11.9441C1.75203 11.9441 1.53301 11.9275 1.31203 11.9091L1.00442 12.8307C2.3619 13.684 3.95602 14.1901 5.68674 14.1901C11.2976 14.1901 14.3595 9.52571 14.3595 5.51735V5.51671V5.51606V5.51542V5.51477V5.51413V5.51348V5.51283V5.51219V5.51154V5.51089V5.51024V5.50959V5.50894V5.50829V5.50764V5.50699V5.50634V5.50569V5.50504V5.50439V5.50373V5.50308V5.50243V5.50177V5.50112V5.50046V5.49981V5.49915V5.4985V5.49784V5.49719V5.49653V5.49587V5.49521V5.49455V5.4939V5.49324V5.49258V5.49192V5.49126V5.4906V5.48994V5.48927V5.48861V5.48795V5.48729V5.48663V5.48596V5.4853V5.48464V5.48397V5.48331V5.48264V5.48198V5.48131V5.48064V5.47998V5.47931V5.47864V5.47797V5.47731V5.47664V5.47597V5.4753V5.47463V5.47396V5.47329V5.47262V5.47195V5.47128V5.47061V5.46993V5.46926V5.46859V5.46791V5.46724V5.46657V5.46589V5.46522V5.46454V5.46387V5.46319V5.46252V5.46184V5.46116V5.46049V5.45981V5.45913V5.45845V5.45777V5.4571V5.45642V5.45574V5.45506V5.45438V5.4537V5.45302V5.45233V5.45165V5.45097V5.45029V5.44961V5.44892V5.44824V5.44756V5.44687V5.44619V5.4455V5.44482V5.44413V5.44345V5.44276V5.44208V5.44139V5.4407V5.44001V5.43933V5.43864V5.43795V5.43726V5.43657V5.43588V5.4352V5.43451V5.43382V5.43313V5.43243V5.43174V5.43105V5.43036V5.42967V5.42898V5.42828V5.42759V5.4269V5.4262V5.42551V5.42482V5.42412V5.42343V5.42273V5.42204V5.42134V5.42064V5.41995V5.41925V5.41855V5.41786V5.41716V5.41646V5.41576V5.41507V5.41437V5.41367V5.41297V5.41227V5.41157V5.41087V5.41017V5.40947V5.40877V5.40807V5.40736V5.40666V5.40596V5.40526V5.40456V5.40385V5.40315V5.40245V5.40174V5.40159C14.8908 4.98583 15.3402 4.48012 15.6945 3.91324L16.5866 2.48596L15.1632 3.1468Z" stroke="white"/>
</svg>
